<svg xmlns="http://www.w3.org/2000/svg" viewBox="0 0 640 420">
<defs><linearGradient id="bg" x1="0" x2="1" y1="0" y2="1"><stop stop-color="#071B33"/><stop offset=".58" stop-color="#0B2748"/><stop offset="1" stop-color="#D9A441"/></linearGradient><radialGradient id="light" cx="50%" cy="18%" r="60%"><stop stop-color="#FFF8EA" stop-opacity=".72"/><stop offset=".42" stop-color="#F59E0B" stop-opacity=".18"/><stop offset="1" stop-color="#071B33" stop-opacity="0"/></radialGradient></defs>
<rect width="640" height="420" rx="34" fill="url(#bg)"/>
<rect width="640" height="420" rx="34" fill="url(#light)"/>
<path d="M320 78v150M250 142h140" stroke="#FFF8EA" stroke-width="18" stroke-linecap="round" opacity=".9"/>
<path d="M0 310c80-44 128 12 190-22 66-37 109-34 166 0 64 38 120-15 284 24v108H0z" fill="#06172c" opacity=".72"/>
<g fill="#FFF8EA" opacity=".82"><circle cx="118" cy="292" r="18"/><circle cx="195" cy="282" r="15"/><circle cx="454" cy="287" r="17"/><circle cx="522" cy="296" r="16"/></g>
<g stroke="#F7C76B" stroke-width="12" stroke-linecap="round" opacity=".8"><path d="M96 270l-22-62"/><path d="M492 273l28-68"/><path d="M560 285l36-55"/><path d="M166 263l-12-58"/></g>
</svg>
