<svg xmlns="http://www.w3.org/2000/svg" viewBox="0 0 420 260">
<defs><linearGradient id="bg" x1="0" x2="1" y1="0" y2="1"><stop stop-color="#FFF8EA"/><stop offset="1" stop-color="#F7EFE1"/></linearGradient></defs>
<rect width="420" height="260" rx="28" fill="url(#bg)"/>
<rect x="58" y="74" width="304" height="122" rx="16" fill="#071B33" opacity=".08"/>
<path d="M72 88c56-18 92-8 138 28 46-36 82-46 138-28v98c-56-18-92-8-138 28-46-36-82-46-138-28z" fill="#FFF8EA" stroke="#D9A441" stroke-width="7"/>
<path d="M210 116v98M98 124c34-6 62 0 88 18M322 124c-34-6-62 0-88 18" stroke="#071B33" stroke-width="7" stroke-linecap="round" opacity=".72"/>
<circle cx="324" cy="70" r="20" fill="#D9A441" opacity=".35"/>
</svg>
